<?xml version="1.0" encoding="UTF-8"?>
<svg id="Layer_1" data-name="Layer 1" xmlns="http://www.w3.org/2000/svg" viewBox="0 0 132.41 57.28">
  <defs>
    <style>
      .cls-1 {
        font-family: DMSans-Medium, 'DM Sans';
        font-size: 10.2px;
        font-weight: 500;
      }

      .cls-2 {
        letter-spacing: -.02em;
      }

      .cls-3 {
        letter-spacing: -.04em;
      }

      .cls-4 {
        letter-spacing: -.02em;
      }

      .cls-5 {
        letter-spacing: -.04em;
      }

      .cls-6 {
        letter-spacing: -.05em;
      }

      .cls-7 {
        fill: #00008b;
      }

      .cls-8 {
        letter-spacing: -.05em;
      }

      .cls-9 {
        fill: #231f20;
      }

      .cls-10 {
        letter-spacing: -.02em;
      }
    </style>
  </defs>
  <g>
    <path class="cls-9" d="M0,39.83V.67H16.72c2.72,0,5.02,.42,6.88,1.26s3.29,2.01,4.28,3.52c.99,1.51,1.48,3.29,1.48,5.34s-.43,3.64-1.29,4.98c-.86,1.34-1.99,2.37-3.38,3.08-1.4,.71-2.94,1.14-4.61,1.29l.89-.67c1.83,.08,3.43,.56,4.81,1.45,1.38,.89,2.47,2.06,3.27,3.5,.8,1.44,1.2,3.01,1.2,4.73,0,2.13-.5,3.99-1.51,5.59-1.01,1.6-2.48,2.85-4.42,3.75s-4.29,1.34-7.05,1.34H0ZM8.39,16.78h6.88c1.79,0,3.16-.41,4.11-1.23,.95-.82,1.43-1.98,1.43-3.47s-.47-2.66-1.43-3.5c-.95-.84-2.34-1.26-4.17-1.26h-6.82v9.45Zm0,16.22h7.5c1.86,0,3.31-.42,4.34-1.26,1.02-.84,1.54-2.06,1.54-3.66s-.53-2.85-1.59-3.75c-1.06-.89-2.53-1.34-4.39-1.34h-7.38v10.01Z"/>
    <path class="cls-9" d="M84.46,40.5c-2.8,0-5.32-.48-7.58-1.43s-4.04-2.36-5.34-4.22c-1.31-1.86-2.01-4.16-2.12-6.88h8.95c.04,1.08,.32,2.03,.84,2.85,.52,.82,1.23,1.46,2.13,1.93,.89,.47,1.94,.7,3.13,.7,1.01,0,1.89-.16,2.66-.48,.76-.32,1.37-.78,1.82-1.4,.45-.62,.67-1.39,.67-2.32s-.26-1.8-.79-2.49c-.52-.69-1.23-1.29-2.12-1.79-.89-.5-1.93-.97-3.1-1.4-1.17-.43-2.43-.85-3.78-1.26-3.1-1.01-5.47-2.37-7.13-4.08-1.66-1.71-2.49-4.01-2.49-6.88,0-2.39,.59-4.43,1.76-6.12,1.17-1.7,2.79-2.99,4.84-3.89,2.05-.89,4.38-1.34,6.99-1.34s5.04,.46,7.08,1.37c2.03,.91,3.65,2.24,4.87,3.97,1.21,1.73,1.86,3.79,1.93,6.18h-9c-.04-.82-.27-1.57-.7-2.24-.43-.67-1.01-1.21-1.74-1.62-.73-.41-1.58-.61-2.54-.61-.86-.04-1.64,.08-2.35,.36-.71,.28-1.27,.71-1.68,1.29-.41,.58-.62,1.3-.62,2.15s.21,1.54,.64,2.15c.43,.61,1.02,1.14,1.79,1.57s1.66,.83,2.69,1.2c1.02,.37,2.15,.75,3.38,1.12,1.97,.67,3.79,1.46,5.46,2.38,1.66,.91,3,2.11,4.03,3.58,1.02,1.47,1.54,3.42,1.54,5.84,0,2.13-.55,4.08-1.65,5.87-1.1,1.79-2.69,3.23-4.75,4.31-2.07,1.08-4.63,1.62-7.69,1.62Z"/>
    <path class="cls-9" d="M113.88,40.5c-2.8,0-5.32-.48-7.58-1.43s-4.04-2.36-5.34-4.22c-1.31-1.86-2.01-4.16-2.12-6.88h8.95c.04,1.08,.32,2.03,.84,2.85,.52,.82,1.23,1.46,2.13,1.93,.89,.47,1.94,.7,3.13,.7,1.01,0,1.89-.16,2.66-.48,.76-.32,1.37-.78,1.82-1.4,.45-.62,.67-1.39,.67-2.32s-.26-1.8-.78-2.49c-.52-.69-1.23-1.29-2.12-1.79-.9-.5-1.93-.97-3.1-1.4-1.17-.43-2.43-.85-3.78-1.26-3.1-1.01-5.47-2.37-7.13-4.08-1.66-1.71-2.49-4.01-2.49-6.88,0-2.39,.59-4.43,1.76-6.12,1.17-1.7,2.79-2.99,4.84-3.89,2.05-.89,4.38-1.34,6.99-1.34s5.04,.46,7.08,1.37c2.03,.91,3.65,2.24,4.87,3.97,1.21,1.73,1.85,3.79,1.93,6.18h-9.01c-.04-.82-.27-1.57-.7-2.24-.43-.67-1.01-1.21-1.73-1.62-.73-.41-1.58-.61-2.54-.61-.86-.04-1.64,.08-2.35,.36-.71,.28-1.27,.71-1.68,1.29-.41,.58-.61,1.3-.61,2.15s.21,1.54,.64,2.15c.43,.61,1.02,1.14,1.79,1.57s1.66,.83,2.69,1.2c1.02,.37,2.15,.75,3.38,1.12,1.97,.67,3.79,1.46,5.45,2.38,1.66,.91,3,2.11,4.03,3.58,1.03,1.47,1.54,3.42,1.54,5.84,0,2.13-.55,4.08-1.65,5.87s-2.68,3.23-4.75,4.31c-2.07,1.08-4.63,1.62-7.69,1.62Z"/>
    <path class="cls-7" d="M40.48,39.77c-2.12,0-3.84-.58-5.17-1.75-1.32-1.17-1.98-2.86-1.98-5.09,0-.86,.07-1.66,.21-2.4s.29-1.47,.43-2.22c.14-.75,.21-1.55,.21-2.42,0-.6-.13-1.15-.39-1.63s-.67-.88-1.24-1.18c-.56-.3-1.33-.48-2.3-.53v-4.71c.97-.08,1.74-.26,2.3-.53s.98-.66,1.24-1.14,.39-1.04,.39-1.67c0-.86-.07-1.66-.21-2.4-.15-.73-.29-1.47-.43-2.22s-.21-1.55-.21-2.42c0-2.23,.66-3.92,1.98-5.07,1.32-1.15,3.05-1.73,5.17-1.73h2.71V5.54h-1.57c-.89,0-1.55,.2-1.97,.59s-.63,1.02-.63,1.89c0,.63,.06,1.28,.18,1.96,.12,.68,.23,1.41,.33,2.18,.11,.77,.16,1.63,.16,2.57,0,1.36-.33,2.53-1,3.5-.67,.97-1.75,1.61-3.24,1.93v.08c1.49,.29,2.57,.92,3.24,1.89,.67,.97,1,2.16,1,3.58,0,.94-.05,1.8-.16,2.57-.11,.77-.21,1.49-.33,2.16s-.18,1.32-.18,1.95c0,.84,.21,1.47,.63,1.89s1.07,.63,1.97,.63h1.57v4.87h-2.71Z"/>
    <path class="cls-7" d="M58.94,39.77h-2.71v-4.87h1.61c.89,0,1.54-.21,1.94-.63s.61-1.05,.61-1.89c0-.63-.05-1.28-.16-1.95-.1-.67-.21-1.39-.33-2.16-.12-.77-.18-1.63-.18-2.57,0-1.41,.34-2.61,1.02-3.58,.68-.97,1.76-1.6,3.22-1.89v-.08c-1.47-.31-2.54-.96-3.22-1.93-.68-.97-1.02-2.13-1.02-3.5,0-.94,.06-1.8,.18-2.57,.12-.77,.23-1.5,.33-2.18,.11-.68,.16-1.34,.16-1.96,0-.86-.2-1.49-.61-1.89s-1.06-.59-1.94-.59h-1.61V.67h2.71c2.15,0,3.88,.58,5.19,1.73,1.31,1.15,1.96,2.84,1.96,5.07,0,.86-.07,1.67-.21,2.42s-.29,1.49-.43,2.22c-.15,.73-.22,1.53-.22,2.4,0,.63,.13,1.18,.39,1.67s.68,.86,1.26,1.14,1.35,.45,2.32,.53v4.71c-.97,.05-1.74,.23-2.32,.53-.58,.3-.99,.7-1.26,1.18s-.39,1.03-.39,1.63c0,.86,.07,1.67,.22,2.42,.14,.75,.29,1.49,.43,2.22s.21,1.53,.21,2.4c0,2.23-.66,3.92-1.96,5.09-1.31,1.17-3.04,1.75-5.19,1.75Z"/>
  </g>
  <text class="cls-1" transform="translate(0 54.61)"><tspan class="cls-10" x="0" y="0">Bellah O</tspan><tspan class="cls-6" x="37.17" y="0">p</tspan><tspan class="cls-4" x="43.18" y="0">tions Smart S</tspan><tspan class="cls-8" x="103.99" y="0">y</tspan><tspan class="cls-3" x="109.29" y="0">s</tspan><tspan class="cls-5" x="114.04" y="0">t</tspan><tspan class="cls-2" x="117.77" y="0">em</tspan></text>
</svg>