<?xml version="1.0" encoding="UTF-8"?>
<svg id="Layer_1" data-name="Layer 1" xmlns="http://www.w3.org/2000/svg" xmlns:xlink="http://www.w3.org/1999/xlink" viewBox="0 0 52.05 66.1">
  <defs>
    <style>
      .cls-1 {
        fill: url(#linear-gradient);
      }
    </style>
    <linearGradient id="linear-gradient" x1="26.03" y1="65.13" x2="26.03" y2="1.4" gradientUnits="userSpaceOnUse">
      <stop offset="0" stop-color="#050a49"/>
      <stop offset="1" stop-color="#050a97"/>
    </linearGradient>
  </defs>
  <path class="cls-1" d="M35.64,1.4c0,.08,0,.15,0,.22l-.96,28.44-.1,3.17v.29c-.08,1.82-1.05,3.24-2.25,3.24h-8.12c-1.19,0-2.18-1.42-2.23-3.24l-.03-.88-.1-3.06-.2-5.78-.2-5.69-.56-16.48v-.09C11.62,2.61,4.09,10.85,4.09,20.35c0,4.34,1.62,8.34,4.08,11.48-4.33,3.49-7.22,8.84-7.22,14.62,0,10.12,8.58,18.7,18.69,18.7h31.45V1.4h-15.46Zm-7.37,50.57c-3.28,0-5.93-2.64-5.93-5.92s2.65-5.95,5.93-5.95,5.92,2.67,5.92,5.95-2.65,5.92-5.92,5.92Z"/>
</svg>