<?xml version="1.0" encoding="UTF-8"?>
<svg id="Layer_1" data-name="Layer 1" xmlns="http://www.w3.org/2000/svg" viewBox="0 0 212.9 68.02">
  <defs>
    <style>
      .cls-1 {
        fill: #fff;
      }
    </style>
  </defs>
  <path class="cls-1" d="M36.71,1.93c0,.08,0,.15,0,.22l-.96,28.44-.1,3.17v.29c-.08,1.82-1.05,3.24-2.25,3.24h-8.12c-1.19,0-2.18-1.42-2.23-3.24l-.03-.88-.1-3.06-.2-5.78-.2-5.69-.56-16.48v-.09C12.69,3.14,5.17,11.38,5.17,20.87c0,4.34,1.62,8.34,4.08,11.48-4.33,3.49-7.22,8.84-7.22,14.62,0,10.12,8.58,18.7,18.69,18.7h31.45V1.93h-15.46Zm-7.37,50.57c-3.28,0-5.93-2.64-5.93-5.92s2.65-5.95,5.93-5.95,5.92,2.67,5.92,5.95-2.65,5.92-5.92,5.92Z"/>
  <g>
    <path class="cls-1" d="M64.17,28.64V1.89h14.97c5.11,0,8.19,2.36,8.19,6.59,0,3.15-1.76,5.51-5.83,5.99v.28c4.55,.52,6.79,3,6.79,6.51,0,4.59-3.07,7.39-8.59,7.39h-15.53Zm4.27-15.53h10.1c3,0,4.51-1.16,4.51-3.67s-1.4-3.67-4.39-3.67h-10.22v7.35Zm0,11.66h10.78c3.19,0,4.75-1.2,4.75-4.11s-1.6-3.99-4.75-3.99h-10.78v8.11Z"/>
    <path class="cls-1" d="M90.29,18.74c0-6.19,4.23-10.34,10.7-10.34s10.34,3.39,10.34,9.42c0,.72-.04,1.28-.16,1.88h-16.85c.16,3.83,2.04,5.87,6.63,5.87,4.15,0,5.87-1.36,5.87-3.71v-.32h4.31v.36c0,4.23-4.15,7.15-10.06,7.15-6.51,0-10.78-3.67-10.78-10.3Zm4.07-1.44h12.9v-.08c0-3.67-2.12-5.43-6.35-5.43s-6.31,1.96-6.55,5.51Z"/>
    <path class="cls-1" d="M114.57,28.64V1.89h4.31V28.64h-4.31Z"/>
    <path class="cls-1" d="M122.88,28.64V1.89h4.31V28.64h-4.31Z"/>
    <path class="cls-1" d="M130.3,23.85c0-3.07,2.48-4.67,6.39-5.11l9.03-.96v-1.16c0-3.27-1.44-4.43-5.23-4.43s-5.47,1.2-5.47,4.11v.16h-4.27v-.16c0-4.51,3.75-7.91,10.06-7.91s9.14,3.43,9.14,8.19v12.06h-3.95v-4.95h-.28c-1.04,3.35-4.19,5.35-8.71,5.35-4.11,0-6.71-1.92-6.71-5.19Zm7.87,2.08c4.51,0,7.55-1.68,7.55-5.59l-7.79,.88c-2.24,.28-3.31,.8-3.31,2.36s1.08,2.36,3.55,2.36Z"/>
    <path class="cls-1" d="M153.79,28.64V1.89h4.31V14.86h.24c.68-3.35,3.12-6.47,8.19-6.47,5.47,0,8.15,3.59,8.15,8.43v11.82h-4.27v-10.78c0-3.99-1.8-5.59-5.91-5.59-4.71,0-6.39,2.56-6.39,6.75v9.62h-4.31Z"/>
  </g>
  <g>
    <path class="cls-1" d="M63.58,45.44c0-8.35,5.55-13.78,13.94-13.78s13.98,5.43,13.98,13.78-5.51,13.78-13.98,13.78-13.94-5.43-13.94-13.78Zm23.36,0c0-6.67-3.07-9.66-9.42-9.66s-9.38,3-9.38,9.66,3.03,9.62,9.38,9.62,9.42-2.96,9.42-9.62Z"/>
    <path class="cls-1" d="M94.68,65.6v-26.63h3.95v5.51h.36c.8-3.67,3.59-5.91,8.27-5.91,6.15,0,9.62,4.19,9.62,10.34s-3.39,10.3-9.58,10.3c-4.47,0-7.35-2.36-8.15-5.99h-.16v12.38h-4.31Zm11.14-10.3c4.27,0,6.75-1.64,6.75-6.39s-2.52-6.39-6.67-6.39c-4.43,0-6.91,2.08-6.91,6.35v.36c0,4.07,2.6,6.07,6.83,6.07Z"/>
    <path class="cls-1" d="M128.35,58.81c-4.27,0-6.91-1.88-6.91-6.71v-9.54h-3.35v-3.59h3.35v-4.35h4.27v4.35h7.19v3.59h-7.19v9.3c0,2.44,1.12,3.07,3.59,3.07h3.59v3.87h-4.55Z"/>
    <path class="cls-1" d="M135.62,36.65v-4.59h4.31v4.59h-4.31Zm0,22.16v-19.85h4.31v19.85h-4.31Z"/>
    <path class="cls-1" d="M143.04,48.91c0-6.19,4.43-10.34,11.02-10.34s11.06,4.15,11.06,10.34-4.43,10.3-11.06,10.3-11.02-4.19-11.02-10.3Zm17.85,0c0-4.23-2-6.55-6.83-6.55s-6.79,2.32-6.79,6.55,2,6.47,6.79,6.47,6.83-2.28,6.83-6.47Z"/>
    <path class="cls-1" d="M168.24,58.81v-19.85h3.95v6.15h.28c.6-3.35,3.23-6.55,8.27-6.55,5.51,0,8.23,3.71,8.23,8.31v11.94h-4.31v-10.78c0-3.71-1.68-5.59-5.79-5.59-4.35,0-6.31,2.24-6.31,6.55v9.82h-4.31Z"/>
    <path class="cls-1" d="M192.16,52.11v-.12h4.31v.32c0,2.59,1.56,3.43,5.71,3.43,3.87,0,5.03-.8,5.03-2.56,0-1.64-.96-2.16-3.79-2.56l-5.43-.72c-3.75-.48-6.03-2.08-6.03-5.39s3.15-5.95,9.26-5.95,9.74,2.44,9.74,7.15v.12h-4.27v-.24c0-2.36-1.2-3.59-5.59-3.59-3.63,0-4.91,.8-4.91,2.67,0,1.56,.8,2.12,3.79,2.52l4.59,.64c4.71,.6,6.87,2.2,6.87,5.47,0,3.71-3.67,5.91-9.26,5.91-6.39,0-10.02-2.52-10.02-7.11Z"/>
  </g>
</svg>