<svg width="590" height="160" viewBox="0 0 590 160" fill="none" xmlns="http://www.w3.org/2000/svg">
<path d="M88.5381 0C95.2178 6.00335e-07 101.689 0.887515 107.839 2.5498C102.012 9.35029 98.4971 18.1396 98.4971 27.7383C98.4973 49.31 116.239 66.7969 138.123 66.7969C146.522 66.7969 154.309 64.2183 160.719 59.8242C161.492 64.0675 161.898 68.4385 161.898 72.9033V86.7305C161.898 126.994 129.054 159.634 88.5381 159.634H73.3604C32.8447 159.634 0.000116248 126.994 0 86.7305V72.9033C5.95148e-05 66.0654 0.948392 59.4475 2.71973 53.1719C7.9684 55.3826 13.7453 56.6074 19.8125 56.6074C43.8855 56.6074 63.4004 37.3463 63.4004 13.5859C63.4004 9.18863 62.7303 4.94575 61.4883 0.950195C65.3526 0.325297 69.3183 1.76684e-07 73.3604 0H88.5381ZM62.835 96.2334C57.5202 96.2334 53.211 100.035 53.2109 104.725C53.2109 109.414 57.5201 113.216 62.835 113.216C68.1496 113.216 72.458 109.414 72.458 104.725C72.458 100.035 68.1496 96.2336 62.835 96.2334Z" fill="url(#paint0_linear_1_41)"/>
<path d="M559.759 78.8172C557.281 78.8172 555.084 78.3386 553.17 77.3812C551.255 76.3675 549.762 74.9314 548.692 73.073C547.622 71.2145 547.087 68.9056 547.087 66.1461C547.087 63.7245 547.538 61.6971 548.439 60.0639C549.396 58.4307 550.776 57.1073 552.578 56.0936C554.38 55.0799 556.605 54.2352 559.252 53.5594C561.899 52.8836 564.911 52.2923 568.29 51.7854C570.093 51.5038 571.557 51.2504 572.683 51.0251C573.866 50.7436 574.739 50.3212 575.302 49.758C575.865 49.1385 576.147 48.2656 576.147 47.1393C576.147 45.5625 575.583 44.2109 574.457 43.0845C573.331 41.9582 571.557 41.3951 569.135 41.3951C567.502 41.3951 565.981 41.6766 564.574 42.2398C563.222 42.803 562.039 43.6477 561.026 44.774C560.068 45.9004 559.364 47.3364 558.914 49.0822L548.186 45.7877C548.861 43.4788 549.819 41.4795 551.058 39.79C552.353 38.1005 553.902 36.6926 555.704 35.5663C557.506 34.3837 559.561 33.5108 561.87 32.9476C564.179 32.3844 566.685 32.1029 569.389 32.1029C573.725 32.1029 577.245 32.8068 579.948 34.2147C582.707 35.5663 584.763 37.7063 586.115 40.6348C587.466 43.5069 588.142 47.2238 588.142 51.7854V59.3881C588.142 61.3592 588.17 63.3584 588.226 65.3858C588.339 67.4132 588.452 69.4687 588.564 71.5524C588.733 73.5798 588.902 75.6072 589.071 77.6346H578.343C578.118 76.2267 577.892 74.6217 577.667 72.8196C577.498 70.9611 577.357 69.1027 577.245 67.2442H575.724C574.936 69.3843 573.809 71.3272 572.345 73.073C570.881 74.8188 569.079 76.2267 566.939 77.2967C564.855 78.3104 562.462 78.8172 559.759 78.8172ZM564.911 70.0319C565.981 70.0319 567.051 69.8348 568.122 69.4406C569.248 69.0464 570.318 68.5114 571.332 67.8356C572.402 67.1034 573.359 66.2024 574.204 65.1324C575.105 64.0624 575.837 62.8516 576.4 61.5L576.231 54.4041L578.174 54.8265C577.16 55.5586 575.978 56.1499 574.626 56.6005C573.274 56.9947 571.867 57.3044 570.402 57.5297C568.994 57.7549 567.586 58.0084 566.179 58.2899C564.771 58.5715 563.504 58.9376 562.377 59.3881C561.307 59.8386 560.434 60.4581 559.759 61.2466C559.139 61.9787 558.829 63.0205 558.829 64.3721C558.829 66.1179 559.392 67.4977 560.519 68.5114C561.645 69.525 563.109 70.0319 564.911 70.0319Z" fill="#494949"/>
<path d="M490.452 77.6345L479.47 33.2854H492.141L498.392 68.0045H499.997L507.431 33.2854H522.045L529.732 68.0045H531.337L537.42 33.2854H549.837L538.771 77.6345H522.045L515.118 43.169H513.682L507.093 77.6345H490.452Z" fill="#494949"/>
<path d="M467.108 77.6346V33.2855H479.272V77.6346H467.108ZM473.275 26.612C470.909 26.612 469.079 26.1333 467.784 25.1759C466.545 24.1622 465.925 22.698 465.925 20.7833C465.925 18.8122 466.545 17.3198 467.784 16.3061C469.079 15.2924 470.909 14.7856 473.275 14.7856C475.696 14.7856 477.526 15.2924 478.765 16.3061C480.061 17.3198 480.708 18.8122 480.708 20.7833C480.708 22.6417 480.061 24.0778 478.765 25.0915C477.526 26.1052 475.696 26.612 473.275 26.612Z" fill="#494949"/>
<path d="M439.86 93.0089C437.607 93.0089 435.298 92.7836 432.933 92.3331C430.624 91.9389 428.427 91.2912 426.344 90.3902C424.316 89.5454 422.571 88.4473 421.106 87.0957L424.57 76.7053C426.372 78.5638 428.625 79.9435 431.328 80.8446C434.031 81.802 436.706 82.2806 439.353 82.2806C442.338 82.2806 444.815 81.6612 446.787 80.4222C448.814 79.2396 450.334 77.4093 451.348 74.9314C452.418 72.3971 453.038 69.2434 453.207 65.4702L453.713 57.783H451.855C451.292 61.4999 450.363 64.541 449.067 66.9063C447.828 69.2716 446.223 71.0174 444.252 72.1437C442.338 73.2137 440.057 73.7487 437.41 73.7487C434.2 73.7487 431.497 72.9321 429.3 71.299C427.104 69.6658 425.443 67.216 424.316 63.9497C423.246 60.6833 422.711 56.6567 422.711 51.8698V33.2854H434.876V48.9132C434.876 54.1506 435.467 57.9238 436.65 60.2328C437.832 62.5418 439.634 63.6963 442.056 63.6963C443.351 63.6963 444.534 63.3584 445.604 62.6826C446.674 61.9505 447.575 60.9086 448.307 59.557C449.095 58.2054 449.687 56.5722 450.081 54.6575C450.532 52.6864 450.757 50.4619 450.757 47.984V33.2854H462.921V65.8926C462.921 69.4405 462.611 72.6787 461.992 75.6072C461.372 78.4793 460.443 80.9854 459.204 83.1254C458.022 85.3217 456.501 87.152 454.643 88.6162C452.784 90.0804 450.616 91.1786 448.138 91.9107C445.717 92.6428 442.957 93.0089 439.86 93.0089Z" fill="#494949"/>
<path d="M392.542 78.8172C387.361 78.8172 383.447 77.0714 380.8 73.5798C378.209 70.0318 376.914 64.6536 376.914 57.4451V33.2854H389.079V55.9246C389.079 60.261 389.726 63.4991 391.021 65.6392C392.317 67.7229 394.288 68.7647 396.935 68.7647C398.511 68.7647 399.891 68.3705 401.074 67.5821C402.257 66.7937 403.27 65.6955 404.115 64.2876C404.96 62.8797 405.579 61.2183 405.973 59.3036C406.424 57.3888 406.677 55.3333 406.734 53.1369V33.2854H418.898V59.557V77.6345H409.099L409.014 63.7807H407.494C406.649 67.2723 405.579 70.1445 404.284 72.3971C403.045 74.5935 401.44 76.2266 399.469 77.2966C397.554 78.3103 395.245 78.8172 392.542 78.8172Z" fill="#494949"/>
<path d="M304.326 77.6346V49.2512V33.2855H314.041V46.548H315.646C316.434 43.2816 317.476 40.6066 318.771 38.5229C320.067 36.3829 321.615 34.7779 323.418 33.7079C325.276 32.6379 327.444 32.1029 329.922 32.1029C332.569 32.1029 334.765 32.6942 336.511 33.8768C338.257 35.0595 339.608 36.7208 340.566 38.8608C341.523 40.9445 342.143 43.5069 342.424 46.548H343.776C344.621 43.2253 345.747 40.494 347.155 38.354C348.619 36.214 350.337 34.6371 352.308 33.6234C354.335 32.6097 356.56 32.1029 358.981 32.1029C361.403 32.1029 363.515 32.5816 365.317 33.5389C367.175 34.4963 368.724 35.9324 369.963 37.8471C371.202 39.7056 372.131 42.0708 372.751 44.943C373.37 47.7588 373.68 51.0251 373.68 54.742V77.6346H361.516V56.2626C361.516 53.2215 361.262 50.6872 360.755 48.6599C360.248 46.5762 359.46 45.0275 358.39 44.0138C357.32 43.0001 355.94 42.4932 354.251 42.4932C352.392 42.4932 350.787 43.1409 349.436 44.4361C348.084 45.6751 347.014 47.3927 346.226 49.5891C345.437 51.7854 345.015 54.2915 344.959 57.1073V77.6346H333.048V56.6005C333.048 53.4467 332.766 50.8562 332.203 48.8288C331.64 46.7451 330.823 45.1682 329.753 44.0982C328.683 43.0282 327.332 42.4932 325.698 42.4932C323.784 42.4932 322.15 43.1409 320.799 44.4361C319.447 45.6751 318.405 47.4209 317.673 49.6736C316.941 51.9262 316.547 54.4323 316.491 57.1918V77.6346H304.326Z" fill="#494949"/>
<path d="M273.572 78.8172C268.391 78.8172 264.477 77.0714 261.83 73.5798C259.239 70.0318 257.944 64.6536 257.944 57.4451V33.2854H270.108V55.9246C270.108 60.261 270.756 63.4991 272.051 65.6392C273.346 67.7229 275.317 68.7647 277.964 68.7647C279.541 68.7647 280.921 68.3705 282.104 67.5821C283.286 66.7937 284.3 65.6955 285.145 64.2876C285.989 62.8797 286.609 61.2183 287.003 59.3036C287.454 57.3888 287.707 55.3333 287.763 53.1369V33.2854H299.928V59.557V77.6345H290.129L290.044 63.7807H288.524C287.679 67.2723 286.609 70.1445 285.314 72.3971C284.075 74.5935 282.47 76.2266 280.499 77.2966C278.584 78.3103 276.275 78.8172 273.572 78.8172Z" fill="#494949"/>
<path d="M242.112 77.6346V17.2354H254.107V77.6346H242.112Z" fill="#494949"/>
<path d="M212.658 78.8172C208.603 78.8172 204.97 78.1977 201.76 76.9588C198.55 75.6635 195.791 73.8051 193.482 71.3835C191.229 68.9055 189.483 65.8926 188.244 62.3447C187.062 58.7404 186.471 54.6294 186.471 50.0114C186.471 43.4224 187.625 37.9879 189.934 33.7078C192.243 29.3715 195.397 26.1333 199.395 23.9933C203.45 21.7969 208.012 20.6988 213.08 20.6988C217.022 20.6988 220.598 21.3464 223.808 22.6417C227.018 23.8806 229.75 25.7391 232.002 28.217C234.311 30.6386 236.085 33.6797 237.324 37.3402C238.563 40.9445 239.183 45.0837 239.183 49.758C239.183 54.5449 238.563 58.7404 237.324 62.3447C236.085 65.9489 234.283 68.99 231.918 71.4679C229.609 73.8895 226.821 75.7198 223.555 76.9588C220.288 78.1977 216.656 78.8172 212.658 78.8172ZM212.996 69.1026C215.98 69.1026 218.486 68.3705 220.514 66.9063C222.541 65.4421 224.09 63.3302 225.16 60.5707C226.23 57.8112 226.765 54.4322 226.765 50.4338C226.765 46.2664 226.202 42.7185 225.075 39.79C224.005 36.8616 222.428 34.6371 220.345 33.1165C218.261 31.5397 215.727 30.7512 212.742 30.7512C209.814 30.7512 207.308 31.5115 205.224 33.0321C203.196 34.4963 201.62 36.6363 200.493 39.4521C199.423 42.2679 198.888 45.7595 198.888 49.9269C198.888 52.968 199.198 55.6994 199.817 58.121C200.493 60.4862 201.423 62.4855 202.605 64.1187C203.788 65.7518 205.252 66.9908 206.998 67.8355C208.744 68.6803 210.743 69.1026 212.996 69.1026Z" fill="#494949"/>
<path d="M356.641 150.67V122.793V90.2705H368.89V104.124C368.89 105.251 368.833 106.433 368.721 107.672C368.665 108.911 368.524 110.178 368.298 111.474C368.13 112.713 367.932 113.98 367.707 115.275C367.538 116.57 367.341 117.866 367.116 119.161H368.974C369.763 116.289 370.748 113.811 371.931 111.727C373.17 109.643 374.747 108.038 376.661 106.912C378.576 105.729 380.998 105.138 383.926 105.138C389.107 105.138 392.993 106.968 395.584 110.629C398.174 114.233 399.47 119.78 399.47 127.27V150.67H387.221V129.129C387.221 124.398 386.517 120.907 385.109 118.654C383.757 116.345 381.702 115.191 378.942 115.191C376.69 115.191 374.831 115.866 373.367 117.218C371.903 118.569 370.805 120.4 370.072 122.709C369.34 124.961 368.918 127.496 368.805 130.311V150.67H356.641Z" fill="#494949"/>
<path d="M324.375 151.852C321.897 151.852 319.701 151.374 317.786 150.416C315.871 149.403 314.379 147.967 313.309 146.108C312.239 144.25 311.704 141.941 311.704 139.181C311.704 136.76 312.154 134.732 313.055 133.099C314.013 131.466 315.393 130.142 317.195 129.129C318.997 128.115 321.221 127.27 323.868 126.595C326.515 125.919 329.528 125.327 332.907 124.821C334.709 124.539 336.173 124.286 337.3 124.06C338.482 123.779 339.355 123.356 339.918 122.793C340.482 122.174 340.763 121.301 340.763 120.174C340.763 118.598 340.2 117.246 339.074 116.12C337.947 114.993 336.173 114.43 333.752 114.43C332.119 114.43 330.598 114.712 329.19 115.275C327.839 115.838 326.656 116.683 325.642 117.809C324.685 118.936 323.981 120.372 323.53 122.117L312.802 118.823C313.478 116.514 314.435 114.515 315.674 112.825C316.969 111.136 318.518 109.728 320.32 108.601C322.122 107.419 324.178 106.546 326.487 105.983C328.796 105.42 331.302 105.138 334.005 105.138C338.342 105.138 341.861 105.842 344.564 107.25C347.324 108.601 349.38 110.742 350.731 113.67C352.083 116.542 352.758 120.259 352.758 124.821V132.423C352.758 134.394 352.787 136.394 352.843 138.421C352.956 140.448 353.068 142.504 353.181 144.588C353.35 146.615 353.519 148.642 353.688 150.67H342.959C342.734 149.262 342.509 147.657 342.284 145.855C342.115 143.996 341.974 142.138 341.861 140.279H340.341C339.552 142.419 338.426 144.362 336.962 146.108C335.498 147.854 333.695 149.262 331.555 150.332C329.472 151.346 327.078 151.852 324.375 151.852ZM329.528 143.067C330.598 143.067 331.668 142.87 332.738 142.476C333.864 142.082 334.934 141.547 335.948 140.871C337.018 140.139 337.975 139.238 338.82 138.168C339.721 137.098 340.453 135.887 341.017 134.535L340.848 127.439L342.791 127.862C341.777 128.594 340.594 129.185 339.243 129.636C337.891 130.03 336.483 130.34 335.019 130.565C333.611 130.79 332.203 131.044 330.795 131.325C329.387 131.607 328.12 131.973 326.994 132.423C325.924 132.874 325.051 133.493 324.375 134.282C323.756 135.014 323.446 136.056 323.446 137.407C323.446 139.153 324.009 140.533 325.135 141.547C326.262 142.56 327.726 143.067 329.528 143.067Z" fill="#494949"/>
<path d="M297.562 150.67V90.2705H309.557V150.67H297.562Z" fill="#494949"/>
<path d="M281.139 150.67V90.2705H293.134V150.67H281.139Z" fill="#494949"/>
<path d="M259.424 151.852C255.764 151.852 252.497 151.346 249.625 150.332C246.809 149.318 244.416 147.854 242.445 145.939C240.474 144.024 238.953 141.659 237.883 138.843C236.869 136.028 236.363 132.846 236.363 129.298C236.363 125.806 236.841 122.596 237.799 119.668C238.812 116.683 240.277 114.12 242.191 111.98C244.106 109.784 246.443 108.095 249.203 106.912C251.962 105.729 255.088 105.138 258.579 105.138C261.958 105.138 264.971 105.701 267.618 106.828C270.265 107.898 272.461 109.531 274.207 111.727C276.009 113.923 277.305 116.627 278.093 119.837C278.938 122.99 279.247 126.623 279.022 130.734L244.219 131.072V124.398L272.011 124.145L267.703 127.524C268.097 124.539 267.9 122.089 267.111 120.174C266.323 118.26 265.168 116.852 263.648 115.951C262.184 115.05 260.55 114.599 258.748 114.599C256.608 114.599 254.722 115.162 253.089 116.289C251.455 117.415 250.188 119.076 249.287 121.273C248.386 123.413 247.936 126.003 247.936 129.044C247.936 133.831 248.977 137.351 251.061 139.604C253.201 141.856 255.989 142.983 259.424 142.983C261.001 142.983 262.324 142.785 263.394 142.391C264.521 141.941 265.422 141.378 266.098 140.702C266.83 140.026 267.393 139.266 267.787 138.421C268.238 137.576 268.604 136.731 268.885 135.887L279.445 138.168C278.938 140.251 278.177 142.138 277.164 143.827C276.206 145.461 274.911 146.897 273.278 148.136C271.645 149.318 269.674 150.219 267.365 150.839C265.112 151.515 262.465 151.852 259.424 151.852Z" fill="#494949"/>
<path d="M188.498 150.67V94.9167H211.644C215.079 94.9167 218.148 95.2264 220.852 95.8459C223.555 96.4091 225.864 97.282 227.779 98.4646C229.75 99.6473 231.242 101.196 232.256 103.111C233.326 104.969 233.861 107.194 233.861 109.784C233.861 111.981 233.382 113.895 232.425 115.528C231.524 117.162 230.088 118.485 228.116 119.499C226.202 120.512 223.667 121.216 220.514 121.611V122.878C225.864 123.272 229.778 124.624 232.256 126.933C234.79 129.185 236.057 132.226 236.057 136.056C236.057 139.266 235.212 141.969 233.523 144.165C231.89 146.305 229.412 147.938 226.089 149.065C222.766 150.135 218.655 150.67 213.756 150.67H188.498ZM200.071 140.871H213.587C217.191 140.871 219.866 140.336 221.612 139.266C223.358 138.139 224.231 136.422 224.231 134.113C224.231 131.466 223.132 129.495 220.936 128.2C218.74 126.848 215.417 126.172 210.968 126.172H200.071V140.871ZM200.071 118.57H209.194C213.587 118.57 216.797 117.978 218.824 116.796C220.908 115.557 221.95 113.754 221.95 111.389C221.95 109.024 221.021 107.306 219.162 106.236C217.304 105.11 214.46 104.547 210.63 104.547H200.071V118.57Z" fill="#494949"/>
<defs>
<linearGradient id="paint0_linear_1_41" x1="80.9492" y1="0" x2="80.9492" y2="159.634" gradientUnits="userSpaceOnUse">
<stop stop-color="#1100FF"/>
<stop offset="1" stop-color="#05004B"/>
</linearGradient>
</defs>
</svg>
