<?xml version="1.0" standalone="no"?>
<!DOCTYPE svg PUBLIC "-//W3C//DTD SVG 1.1//EN" "http://www.w3.org/Graphics/SVG/1.1/DTD/svg11.dtd">
<svg xmlns="http://www.w3.org/2000/svg" width="342" height="94" viewBox="0 0 342 94" fill="none">
<rect x="46" y="13" width="23" height="70" fill="#170098"/>
<rect x="23" y="35" width="23" height="48" fill="#170098"/>
<rect y="60" width="23" height="23" fill="#170098"/>
<path d="M104.032 63.768C100.832 63.768 97.9307 63.2347 95.328 62.168C92.768 61.0587 90.7413 59.4373 89.248 57.304C87.7547 55.1707 86.944 52.5467 86.816 49.432H97.056C97.0987 50.6693 97.4187 51.7573 98.016 52.696C98.6133 53.6347 99.424 54.3813 100.448 54.936C101.472 55.448 102.667 55.704 104.032 55.704C105.184 55.704 106.187 55.5333 107.04 55.192C107.936 54.808 108.64 54.2747 109.152 53.592C109.664 52.8667 109.92 51.9707 109.92 50.904C109.92 49.7947 109.621 48.856 109.024 48.088C108.427 47.2773 107.616 46.5947 106.592 46.04C105.568 45.4427 104.373 44.9093 103.008 44.44C101.685 43.928 100.256 43.4373 98.72 42.968C95.1787 41.816 92.448 40.2587 90.528 38.296C88.6507 36.3333 87.712 33.7093 87.712 30.424C87.712 27.6933 88.3733 25.368 89.696 23.448C91.0613 21.4853 92.9173 19.992 95.264 18.968C97.6107 17.944 100.277 17.432 103.264 17.432C106.336 17.432 109.045 17.9653 111.392 19.032C113.739 20.056 115.595 21.5707 116.96 23.576C118.325 25.5387 119.051 27.8853 119.136 30.616H108.832C108.789 29.6773 108.512 28.824 108 28.056C107.531 27.288 106.869 26.6693 106.016 26.2C105.205 25.7307 104.245 25.496 103.136 25.496C102.155 25.4533 101.259 25.6027 100.448 25.944C99.68 26.2427 99.04 26.7333 98.528 27.416C98.0587 28.056 97.824 28.8667 97.824 29.848C97.824 30.7867 98.0587 31.6187 98.528 32.344C99.04 33.0267 99.7227 33.624 100.576 34.136C101.472 34.6053 102.496 35.0533 103.648 35.48C104.843 35.9067 106.144 36.3333 107.552 36.76C109.813 37.528 111.883 38.4453 113.76 39.512C115.68 40.536 117.216 41.9013 118.368 43.608C119.563 45.272 120.16 47.4907 120.16 50.264C120.16 52.696 119.52 54.936 118.24 56.984C117.003 59.032 115.189 60.6747 112.8 61.912C110.453 63.1493 107.531 63.768 104.032 63.768ZM137.269 63C134.922 63 132.853 62.6373 131.061 61.912C129.269 61.144 127.882 59.9067 126.901 58.2C125.92 56.4933 125.429 54.168 125.429 51.224V38.744H119.925V30.744H125.429L126.453 21.656H135.029V30.744H143.285V38.744H135.029V51.352C135.029 52.632 135.306 53.5493 135.861 54.104C136.458 54.616 137.461 54.872 138.869 54.872H143.285V63H137.269ZM160.667 63.768C157.339 63.768 154.416 63.0853 151.899 61.72C149.382 60.312 147.398 58.3707 145.947 55.896C144.539 53.3787 143.835 50.4987 143.835 47.256C143.835 43.928 144.539 40.9627 145.947 38.36C147.355 35.7573 149.318 33.7093 151.835 32.216C154.352 30.7227 157.275 29.976 160.603 29.976C163.846 29.976 166.683 30.68 169.115 32.088C171.547 33.496 173.446 35.416 174.811 37.848C176.219 40.2373 176.923 43.0107 176.923 46.168C176.923 46.5947 176.902 47.0853 176.859 47.64C176.859 48.152 176.816 48.6853 176.731 49.24H150.683V43.672H167.131C167.046 41.88 166.384 40.4507 165.147 39.384C163.952 38.2747 162.459 37.72 160.667 37.72C159.302 37.72 158.064 38.04 156.955 38.68C155.846 39.32 154.95 40.28 154.267 41.56C153.627 42.84 153.307 44.4613 153.307 46.424V48.344C153.307 49.8373 153.584 51.16 154.139 52.312C154.736 53.464 155.568 54.36 156.635 55C157.744 55.64 159.046 55.96 160.539 55.96C161.947 55.96 163.099 55.6827 163.995 55.128C164.934 54.5307 165.659 53.784 166.171 52.888H175.963C175.366 54.936 174.342 56.792 172.891 58.456C171.44 60.0773 169.67 61.3787 167.579 62.36C165.488 63.2987 163.184 63.768 160.667 63.768ZM178.862 77.08V30.744H187.375L188.462 34.968C189.145 34.072 189.934 33.24 190.83 32.472C191.726 31.704 192.793 31.1067 194.031 30.68C195.311 30.2107 196.804 29.976 198.51 29.976C201.497 29.976 204.121 30.7227 206.383 32.216C208.687 33.7093 210.521 35.736 211.887 38.296C213.252 40.8133 213.935 43.6933 213.935 46.936C213.935 50.1787 213.231 53.08 211.823 55.64C210.457 58.1573 208.623 60.1413 206.319 61.592C204.015 63.0427 201.433 63.768 198.575 63.768C196.271 63.768 194.286 63.3627 192.622 62.552C190.958 61.7413 189.572 60.6107 188.462 59.16V77.08H178.862ZM196.142 55.384C197.679 55.384 199.044 55.0427 200.239 54.36C201.476 53.6347 202.436 52.632 203.119 51.352C203.801 50.072 204.142 48.6 204.142 46.936C204.142 45.272 203.801 43.8 203.119 42.52C202.436 41.24 201.476 40.2373 200.239 39.512C199.044 38.744 197.679 38.36 196.142 38.36C194.564 38.36 193.156 38.744 191.919 39.512C190.724 40.2373 189.785 41.24 189.102 42.52C188.42 43.8 188.078 45.2507 188.078 46.872C188.078 48.536 188.42 50.008 189.102 51.288C189.785 52.568 190.724 53.5707 191.919 54.296C193.156 55.0213 194.564 55.384 196.142 55.384ZM221.39 63L211.854 30.744H221.326L227.342 56.6L225.55 56.536L232.462 30.744H243.022L249.934 56.536L248.142 56.6L254.094 30.744H263.566L254.094 63H244.11L236.75 36.568H238.734L231.31 63H221.39ZM263.688 63V30.744H273.288V63H263.688ZM268.488 27.032C266.781 27.032 265.395 26.5413 264.328 25.56C263.261 24.5787 262.728 23.3413 262.728 21.848C262.728 20.312 263.261 19.0533 264.328 18.072C265.395 17.0907 266.781 16.6 268.488 16.6C270.237 16.6 271.645 17.0907 272.712 18.072C273.821 19.0533 274.376 20.312 274.376 21.848C274.376 23.3413 273.821 24.5787 272.712 25.56C271.645 26.5413 270.237 27.032 268.488 27.032ZM290.067 63.768C287.038 63.768 284.414 63.2987 282.195 62.36C280.019 61.3787 278.291 60.056 277.011 58.392C275.774 56.728 275.07 54.8507 274.899 52.76H284.435C284.606 53.4853 284.905 54.1467 285.331 54.744C285.801 55.2987 286.419 55.7467 287.187 56.088C287.998 56.3867 288.894 56.536 289.875 56.536C290.942 56.536 291.795 56.408 292.435 56.152C293.118 55.8533 293.63 55.4693 293.972 55C294.313 54.5307 294.483 54.04 294.483 53.528C294.483 52.7173 294.227 52.0987 293.715 51.672C293.246 51.2453 292.542 50.904 291.604 50.648C290.665 50.3493 289.534 50.072 288.211 49.816C286.675 49.4747 285.139 49.0907 283.603 48.664C282.11 48.1947 280.766 47.6187 279.571 46.936C278.419 46.2533 277.481 45.3787 276.755 44.312C276.073 43.2027 275.731 41.8587 275.731 40.28C275.731 38.36 276.265 36.632 277.331 35.096C278.398 33.5173 279.934 32.28 281.939 31.384C283.945 30.4453 286.377 29.976 289.236 29.976C293.289 29.976 296.468 30.872 298.771 32.664C301.076 34.456 302.441 36.8667 302.868 39.896H293.907C293.652 39.0427 293.118 38.4027 292.307 37.976C291.497 37.5067 290.473 37.272 289.236 37.272C287.828 37.272 286.761 37.5067 286.035 37.976C285.31 38.4453 284.947 39.064 284.947 39.832C284.947 40.344 285.182 40.8133 285.651 41.24C286.163 41.624 286.889 41.9653 287.827 42.264C288.766 42.5627 289.918 42.8613 291.283 43.16C293.886 43.7147 296.126 44.312 298.003 44.952C299.924 45.592 301.417 46.5307 302.483 47.768C303.55 48.9627 304.062 50.712 304.02 53.016C304.062 55.1067 303.507 56.9627 302.355 58.584C301.246 60.2053 299.646 61.4853 297.556 62.424C295.465 63.32 292.969 63.768 290.067 63.768ZM321.942 63.768C318.614 63.768 315.691 63.0853 313.174 61.72C310.657 60.312 308.673 58.3707 307.222 55.896C305.814 53.3787 305.11 50.4987 305.11 47.256C305.11 43.928 305.814 40.9627 307.222 38.36C308.63 35.7573 310.593 33.7093 313.11 32.216C315.627 30.7227 318.55 29.976 321.878 29.976C325.121 29.976 327.958 30.68 330.39 32.088C332.822 33.496 334.721 35.416 336.086 37.848C337.494 40.2373 338.198 43.0107 338.198 46.168C338.198 46.5947 338.177 47.0853 338.134 47.64C338.134 48.152 338.091 48.6853 338.006 49.24H311.958V43.672H328.406C328.321 41.88 327.659 40.4507 326.422 39.384C325.227 38.2747 323.734 37.72 321.942 37.72C320.577 37.72 319.339 38.04 318.23 38.68C317.121 39.32 316.225 40.28 315.542 41.56C314.902 42.84 314.582 44.4613 314.582 46.424V48.344C314.582 49.8373 314.859 51.16 315.414 52.312C316.011 53.464 316.843 54.36 317.91 55C319.019 55.64 320.321 55.96 321.814 55.96C323.222 55.96 324.374 55.6827 325.27 55.128C326.209 54.5307 326.934 53.784 327.446 52.888H337.238C336.641 54.936 335.617 56.792 334.166 58.456C332.715 60.0773 330.945 61.3787 328.854 62.36C326.763 63.2987 324.459 63.768 321.942 63.768Z" fill="#313131"/>
<path d="M210.8 87V70.2H215.744C217.712 70.2 219.328 70.544 220.592 71.232C221.872 71.904 222.816 72.872 223.424 74.136C224.048 75.384 224.36 76.888 224.36 78.648C224.36 80.376 224.048 81.864 223.424 83.112C222.816 84.36 221.872 85.32 220.592 85.992C219.328 86.664 217.712 87 215.744 87H210.8ZM212.816 85.32H215.696C217.328 85.32 218.624 85.056 219.584 84.528C220.544 83.984 221.232 83.216 221.648 82.224C222.064 81.216 222.272 80.024 222.272 78.648C222.272 77.24 222.064 76.032 221.648 75.024C221.232 74.016 220.544 73.24 219.584 72.696C218.624 72.152 217.328 71.88 215.696 71.88H212.816V85.32ZM232.507 87.288C231.371 87.288 230.363 87.024 229.483 86.496C228.619 85.968 227.939 85.232 227.443 84.288C226.947 83.328 226.699 82.216 226.699 80.952C226.699 79.672 226.939 78.56 227.419 77.616C227.915 76.672 228.603 75.936 229.483 75.408C230.379 74.88 231.403 74.616 232.555 74.616C233.739 74.616 234.739 74.88 235.555 75.408C236.387 75.936 237.019 76.632 237.451 77.496C237.899 78.344 238.123 79.28 238.123 80.304C238.123 80.464 238.123 80.632 238.123 80.808C238.123 80.984 238.115 81.184 238.099 81.408H228.211V79.848H236.155C236.107 78.744 235.739 77.88 235.051 77.256C234.379 76.632 233.531 76.32 232.507 76.32C231.819 76.32 231.179 76.48 230.587 76.8C230.011 77.104 229.547 77.56 229.195 78.168C228.843 78.76 228.667 79.504 228.667 80.4V81.072C228.667 82.064 228.843 82.896 229.195 83.568C229.563 84.24 230.035 84.744 230.611 85.08C231.203 85.416 231.835 85.584 232.507 85.584C233.355 85.584 234.051 85.4 234.595 85.032C235.155 84.648 235.555 84.136 235.795 83.496H237.787C237.595 84.216 237.259 84.864 236.779 85.44C236.299 86.016 235.699 86.472 234.979 86.808C234.275 87.128 233.451 87.288 232.507 87.288ZM245.404 87.288C244.396 87.288 243.516 87.12 242.764 86.784C242.028 86.448 241.436 85.984 240.988 85.392C240.556 84.784 240.292 84.072 240.196 83.256H242.26C242.34 83.672 242.508 84.056 242.764 84.408C243.02 84.76 243.364 85.048 243.796 85.272C244.244 85.48 244.788 85.584 245.428 85.584C245.988 85.584 246.452 85.504 246.82 85.344C247.188 85.168 247.46 84.936 247.636 84.648C247.828 84.36 247.924 84.048 247.924 83.712C247.924 83.216 247.804 82.84 247.564 82.584C247.34 82.328 247.004 82.128 246.556 81.984C246.108 81.824 245.564 81.688 244.924 81.576C244.396 81.48 243.876 81.352 243.364 81.192C242.852 81.032 242.396 80.824 241.996 80.568C241.596 80.296 241.276 79.968 241.036 79.584C240.812 79.2 240.7 78.728 240.7 78.168C240.7 77.48 240.876 76.872 241.228 76.344C241.58 75.8 242.084 75.376 242.74 75.072C243.412 74.768 244.188 74.616 245.068 74.616C246.364 74.616 247.412 74.928 248.212 75.552C249.012 76.176 249.484 77.08 249.628 78.264H247.636C247.556 77.656 247.292 77.184 246.844 76.848C246.412 76.496 245.812 76.32 245.044 76.32C244.292 76.32 243.716 76.472 243.316 76.776C242.932 77.08 242.74 77.48 242.74 77.976C242.74 78.296 242.844 78.584 243.052 78.84C243.276 79.08 243.596 79.288 244.012 79.464C244.444 79.64 244.972 79.784 245.596 79.896C246.396 80.04 247.124 80.232 247.78 80.472C248.436 80.712 248.964 81.072 249.364 81.552C249.78 82.016 249.988 82.68 249.988 83.544C249.988 84.296 249.796 84.952 249.412 85.512C249.044 86.072 248.516 86.512 247.828 86.832C247.14 87.136 246.332 87.288 245.404 87.288ZM253.083 87V74.904H255.099V87H253.083ZM254.091 72.336C253.691 72.336 253.355 72.208 253.083 71.952C252.827 71.68 252.699 71.344 252.699 70.944C252.699 70.544 252.827 70.224 253.083 69.984C253.355 69.728 253.691 69.6 254.091 69.6C254.475 69.6 254.803 69.728 255.075 69.984C255.347 70.224 255.483 70.544 255.483 70.944C255.483 71.344 255.347 71.68 255.075 71.952C254.803 72.208 254.475 72.336 254.091 72.336ZM263.433 92.568C262.345 92.568 261.377 92.424 260.529 92.136C259.697 91.864 259.049 91.44 258.585 90.864C258.121 90.288 257.889 89.576 257.889 88.728C257.889 88.36 257.961 87.968 258.105 87.552C258.265 87.136 258.529 86.728 258.897 86.328C259.281 85.928 259.817 85.568 260.505 85.248L261.897 86.064C261.049 86.416 260.497 86.816 260.241 87.264C259.985 87.728 259.857 88.152 259.857 88.536C259.857 89.064 260.009 89.504 260.313 89.856C260.617 90.208 261.041 90.472 261.585 90.648C262.129 90.824 262.745 90.912 263.433 90.912C264.121 90.912 264.713 90.816 265.209 90.624C265.705 90.432 266.089 90.16 266.361 89.808C266.633 89.456 266.769 89.04 266.769 88.56C266.769 88 266.561 87.528 266.145 87.144C265.729 86.776 264.937 86.56 263.769 86.496C262.825 86.432 262.033 86.344 261.393 86.232C260.753 86.12 260.225 85.992 259.809 85.848C259.393 85.688 259.041 85.512 258.753 85.32C258.481 85.128 258.233 84.928 258.009 84.72V84.168L260.337 81.864L262.089 82.488L259.689 84.648L260.001 83.808C260.177 83.936 260.345 84.056 260.505 84.168C260.665 84.28 260.881 84.376 261.153 84.456C261.425 84.536 261.801 84.608 262.281 84.672C262.777 84.736 263.425 84.8 264.225 84.864C265.329 84.944 266.209 85.136 266.865 85.44C267.537 85.744 268.017 86.152 268.305 86.664C268.609 87.176 268.761 87.784 268.761 88.488C268.761 89.176 268.569 89.824 268.185 90.432C267.817 91.056 267.241 91.568 266.457 91.968C265.673 92.368 264.665 92.568 263.433 92.568ZM263.409 83.208C262.401 83.208 261.537 83.016 260.817 82.632C260.113 82.248 259.577 81.736 259.209 81.096C258.841 80.44 258.657 79.712 258.657 78.912C258.657 78.112 258.841 77.392 259.209 76.752C259.593 76.112 260.137 75.6 260.841 75.216C261.545 74.816 262.401 74.616 263.409 74.616C264.417 74.616 265.273 74.816 265.977 75.216C266.681 75.6 267.217 76.112 267.585 76.752C267.953 77.392 268.137 78.112 268.137 78.912C268.137 79.712 267.953 80.44 267.585 81.096C267.217 81.736 266.681 82.248 265.977 82.632C265.273 83.016 264.417 83.208 263.409 83.208ZM263.409 81.552C264.273 81.552 264.953 81.328 265.449 80.88C265.945 80.432 266.193 79.776 266.193 78.912C266.193 78.064 265.945 77.416 265.449 76.968C264.953 76.52 264.273 76.296 263.409 76.296C262.561 76.296 261.873 76.52 261.345 76.968C260.833 77.416 260.577 78.064 260.577 78.912C260.577 79.776 260.833 80.432 261.345 80.88C261.857 81.328 262.545 81.552 263.409 81.552ZM265.377 76.608L264.777 74.904H269.721V76.416L265.377 76.608ZM272.039 87V74.904H273.863L273.959 77.016C274.343 76.264 274.887 75.68 275.591 75.264C276.311 74.832 277.127 74.616 278.039 74.616C278.983 74.616 279.799 74.808 280.487 75.192C281.175 75.56 281.711 76.128 282.095 76.896C282.479 77.648 282.671 78.608 282.671 79.776V87H280.655V79.992C280.655 78.776 280.383 77.864 279.839 77.256C279.311 76.648 278.559 76.344 277.583 76.344C276.911 76.344 276.311 76.512 275.783 76.848C275.255 77.168 274.831 77.64 274.511 78.264C274.207 78.872 274.055 79.632 274.055 80.544V87H272.039ZM292.316 87V70.2H294.332V85.392H302.156V87H292.316ZM308.788 87.288C307.812 87.288 306.996 87.12 306.34 86.784C305.684 86.432 305.196 85.976 304.876 85.416C304.556 84.84 304.396 84.216 304.396 83.544C304.396 82.728 304.604 82.04 305.02 81.48C305.452 80.904 306.052 80.472 306.82 80.184C307.604 79.88 308.524 79.728 309.58 79.728H312.772C312.772 78.976 312.652 78.352 312.412 77.856C312.188 77.344 311.852 76.96 311.404 76.704C310.972 76.448 310.428 76.32 309.772 76.32C309.004 76.32 308.34 76.512 307.78 76.896C307.22 77.28 306.876 77.848 306.748 78.6H304.684C304.78 77.736 305.068 77.016 305.548 76.44C306.044 75.848 306.668 75.4 307.42 75.096C308.172 74.776 308.956 74.616 309.772 74.616C310.892 74.616 311.82 74.824 312.556 75.24C313.308 75.64 313.868 76.208 314.236 76.944C314.604 77.664 314.788 78.52 314.788 79.512V87H312.988L312.868 84.864C312.708 85.2 312.5 85.52 312.244 85.824C312.004 86.112 311.716 86.368 311.38 86.592C311.044 86.8 310.66 86.968 310.228 87.096C309.812 87.224 309.332 87.288 308.788 87.288ZM309.1 85.584C309.66 85.584 310.164 85.472 310.612 85.248C311.076 85.008 311.468 84.688 311.788 84.288C312.108 83.872 312.348 83.416 312.508 82.92C312.684 82.424 312.772 81.904 312.772 81.36V81.288H309.748C308.964 81.288 308.332 81.384 307.852 81.576C307.372 81.752 307.028 82.008 306.82 82.344C306.612 82.664 306.508 83.032 306.508 83.448C306.508 83.88 306.604 84.256 306.796 84.576C307.004 84.896 307.3 85.144 307.684 85.32C308.084 85.496 308.556 85.584 309.1 85.584ZM324.243 87.288C323.555 87.288 322.931 87.192 322.371 87C321.827 86.792 321.347 86.52 320.931 86.184C320.515 85.848 320.171 85.456 319.899 85.008L319.731 87H317.907V69.72H319.923V76.896C320.307 76.272 320.859 75.736 321.579 75.288C322.299 74.84 323.187 74.616 324.243 74.616C325.411 74.616 326.435 74.896 327.315 75.456C328.195 76 328.875 76.752 329.355 77.712C329.851 78.656 330.099 79.736 330.099 80.952C330.099 82.168 329.851 83.256 329.355 84.216C328.875 85.176 328.195 85.928 327.315 86.472C326.435 87.016 325.411 87.288 324.243 87.288ZM324.003 85.536C324.787 85.536 325.483 85.344 326.091 84.96C326.699 84.576 327.171 84.048 327.507 83.376C327.859 82.688 328.035 81.88 328.035 80.952C328.035 80.04 327.859 79.24 327.507 78.552C327.171 77.864 326.699 77.328 326.091 76.944C325.483 76.56 324.787 76.368 324.003 76.368C323.203 76.368 322.499 76.56 321.891 76.944C321.283 77.328 320.811 77.864 320.475 78.552C320.139 79.24 319.971 80.04 319.971 80.952C319.971 81.88 320.139 82.688 320.475 83.376C320.811 84.048 321.283 84.576 321.891 84.96C322.499 85.344 323.203 85.536 324.003 85.536Z" fill="#313131"/>
</svg>