<?xml version="1.0" encoding="UTF-8"?>
<svg id="Layer_1" data-name="Layer 1" xmlns="http://www.w3.org/2000/svg" viewBox="0 0 134.15 38.87">
  <defs>
    <style>
      .cls-1 {
        fill: #05a3e8;
      }
    </style>
  </defs>
  <path class="cls-1" d="M7.34,26.48L0,0H4.2l5.16,20.51h.25L14.97,0h4.16l5.37,20.52h.25L29.9,0h4.22l-7.36,26.48h-4.02L17.16,6.65h-.21l-5.57,19.83H7.34Z"/>
  <path class="cls-1" d="M36.39,5.61c-.67,0-1.25-.23-1.73-.68-.48-.45-.72-.99-.72-1.62s.24-1.18,.72-1.64c.48-.45,1.05-.68,1.73-.68s1.25,.23,1.73,.68c.48,.45,.72,1,.72,1.64s-.24,1.17-.72,1.62c-.48,.45-1.05,.68-1.73,.68Zm-1.95,20.87V6.62h3.87V26.48h-3.87Z"/>
  <path class="cls-1" d="M44.35,14.69v11.79h-3.87V6.62h3.71v3.23h.25c.46-1.05,1.17-1.9,2.15-2.53s2.21-.96,3.7-.96c1.35,0,2.54,.28,3.56,.85,1.02,.56,1.81,1.4,2.37,2.51,.56,1.11,.84,2.49,.84,4.13v12.63h-3.87V14.31c0-1.44-.38-2.57-1.13-3.38s-1.78-1.22-3.09-1.22c-.9,0-1.69,.19-2.39,.58-.69,.39-1.24,.96-1.64,1.7-.4,.75-.6,1.64-.6,2.7Z"/>
  <path class="cls-1" d="M72.7,6.62v3.22h-.29c-.23-.42-.56-.89-.99-1.44-.43-.55-1.02-1.02-1.78-1.43-.75-.42-1.75-.62-2.98-.62-1.59,0-3.03,.4-4.28,1.21-1.26,.81-2.26,1.96-2.97,3.47-.72,1.51-1.08,3.33-1.08,5.43s.36,3.9,1.09,5.33c.72,1.45,1.72,2.54,2.97,3.28,1.26,.74,2.67,1.1,4.24,1.1,1.21,0,2.2-.19,2.96-.57s1.35-.83,1.79-1.34c.43-.52,.77-.99,1-1.41h.25v3.91c0,1.56-.48,2.68-1.44,3.4s-2.17,1.07-3.63,1.07c-1.07,0-1.94-.15-2.61-.46-.68-.3-1.21-.67-1.6-1.09-.39-.42-.71-.82-.94-1.2l-3.33,1.37c.36,.81,.89,1.56,1.6,2.23,.71,.69,1.64,1.24,2.77,1.65,1.14,.42,2.49,.62,4.07,.62,1.69,0,3.21-.26,4.56-.78,1.34-.53,2.41-1.34,3.21-2.43s1.19-2.49,1.19-4.2V6.62h-3.79Zm-.02,14.99h-5.7c-3.15,0-5.7-2.55-5.7-5.7,0-1.57,.64-2.99,1.67-4.03,1.03-1.03,2.46-1.67,4.03-1.67s2.99,.64,4.03,1.67,1.67,2.46,1.67,4.03v5.7Z"/>
  <path class="cls-1" d="M78.66,26.48V6.62h3.74v3.15h.21c.36-1.07,1-1.91,1.92-2.53,.92-.62,1.96-.93,3.12-.93,.24,0,.53,0,.86,.03s.59,.04,.78,.06v3.7c-.16-.04-.43-.09-.83-.15s-.79-.08-1.19-.08c-.91,0-1.73,.19-2.44,.58-.71,.38-1.27,.91-1.69,1.59-.41,.68-.62,1.45-.62,2.31v12.13h-3.87Z"/>
  <path class="cls-1" d="M95.22,26.92c-1.26,0-2.4-.23-3.41-.7s-1.82-1.15-2.41-2.05-.89-2-.89-3.3c0-1.12,.22-2.04,.65-2.77,.43-.72,1.01-1.3,1.75-1.72,.73-.42,1.55-.74,2.46-.96s1.83-.38,2.77-.49c1.19-.14,2.15-.25,2.9-.34,.74-.09,1.28-.24,1.62-.45s.5-.54,.5-1.01v-.09c0-1.13-.32-2-.95-2.62-.63-.62-1.58-.93-2.83-.93s-2.33,.29-3.07,.86c-.75,.57-1.26,1.21-1.54,1.91l-3.63-.83c.43-1.21,1.06-2.18,1.89-2.93,.83-.75,1.79-1.29,2.88-1.63s2.23-.51,3.43-.51c.79,0,1.64,.09,2.53,.28,.89,.19,1.73,.52,2.51,1.01,.78,.49,1.42,1.19,1.92,2.1s.75,2.09,.75,3.54v13.19h-3.78v-2.72h-.16c-.25,.5-.63,.99-1.12,1.47-.5,.48-1.14,.88-1.93,1.2-.78,.32-1.72,.48-2.82,.48Zm.84-3.1c1.07,0,1.98-.21,2.75-.63,.76-.42,1.34-.98,1.75-1.66,.4-.69,.6-1.42,.6-2.2v-2.56c-.14,.14-.4,.26-.79,.38-.39,.12-.84,.22-1.34,.3-.5,.08-.99,.16-1.46,.22-.47,.06-.87,.12-1.19,.16-.75,.1-1.43,.25-2.05,.48-.62,.22-1.11,.55-1.47,.96-.37,.42-.55,.97-.55,1.66,0,.96,.35,1.68,1.06,2.17,.71,.49,1.61,.73,2.7,.73Z"/>
  <path class="cls-1" d="M107.15,26.48V6.62h3.71v3.23h.25c.41-1.09,1.09-1.95,2.03-2.57,.94-.62,2.06-.92,3.37-.92s2.44,.31,3.34,.93c.9,.62,1.57,1.47,2,2.56h.21c.48-1.06,1.23-1.91,2.26-2.54,1.03-.63,2.27-.95,3.7-.95,1.8,0,3.27,.56,4.42,1.69,1.14,1.13,1.71,2.83,1.71,5.11v13.32h-3.86V13.52c0-1.34-.37-2.32-1.1-2.92-.73-.6-1.61-.9-2.63-.9-1.26,0-2.24,.39-2.93,1.16-.7,.77-1.05,1.76-1.05,2.97v12.66h-3.85V13.28c0-1.08-.34-1.94-1.01-2.6-.67-.65-1.55-.98-2.63-.98-.73,0-1.41,.19-2.02,.58-.62,.38-1.11,.92-1.49,1.6-.38,.68-.56,1.47-.56,2.37v12.25h-3.87Z"/>
  <g>
    <path class="cls-1" d="M78.92,37.39v-5.26h.46v2.07h.04c.05-.12,.12-.24,.22-.37s.22-.23,.38-.31,.36-.13,.6-.13c.32,0,.61,.08,.85,.26,.25,.17,.44,.41,.57,.71,.14,.3,.21,.66,.21,1.07s-.07,.76-.2,1.07c-.14,.31-.33,.54-.57,.72-.24,.17-.53,.26-.85,.26-.24,0-.44-.04-.6-.13-.16-.09-.29-.19-.39-.32s-.17-.25-.23-.37h-.06v.73h-.44Zm.45-1.97c0,.32,.05,.6,.14,.85,.09,.25,.23,.44,.41,.58,.18,.14,.4,.21,.65,.21s.48-.07,.67-.22c.18-.14,.32-.34,.41-.59,.09-.25,.14-.52,.14-.83s-.05-.58-.14-.82c-.09-.24-.23-.44-.41-.58-.18-.14-.4-.21-.67-.21s-.47,.07-.65,.21-.32,.33-.41,.57c-.09,.24-.14,.52-.14,.84Z"/>
    <path class="cls-1" d="M83.25,38.87c-.09,0-.18,0-.25-.03-.08-.02-.14-.04-.19-.06l.12-.4c.16,.05,.29,.07,.42,.05,.12-.01,.23-.07,.32-.16,.09-.1,.18-.24,.25-.44l.14-.4-1.45-3.98h.5l1.17,3.34h.04l1.17-3.34h.5l-1.67,4.57c-.07,.19-.16,.35-.26,.48-.1,.13-.22,.22-.36,.29-.13,.06-.28,.09-.45,.09Z"/>
    <path class="cls-1" d="M88.65,37.39v-5.26h1.77c.34,0,.63,.06,.86,.18s.4,.28,.51,.49c.12,.21,.17,.44,.17,.71,0,.22-.04,.41-.11,.56-.07,.16-.17,.28-.3,.38-.13,.1-.27,.17-.42,.21v.04c.17,.01,.33,.07,.49,.18,.16,.11,.29,.26,.39,.45,.1,.19,.15,.42,.15,.69s-.06,.5-.18,.71-.3,.37-.54,.49-.55,.18-.93,.18h-1.87Zm.48-2.88h1.34c.21,0,.39-.04,.54-.13,.16-.09,.28-.2,.37-.35,.09-.15,.13-.32,.13-.52,0-.28-.09-.51-.27-.68-.18-.17-.45-.26-.81-.26h-1.29v1.94Zm0,2.45h1.39c.41,0,.71-.09,.9-.27s.29-.41,.29-.68c0-.2-.05-.38-.14-.55-.1-.16-.23-.29-.41-.39-.17-.1-.38-.14-.62-.14h-1.41v2.03Z"/>
    <path class="cls-1" d="M94.65,37.47c-.37,0-.69-.09-.96-.26-.27-.17-.48-.41-.62-.72s-.22-.66-.22-1.06,.07-.75,.22-1.06c.15-.31,.35-.55,.61-.73,.26-.17,.56-.26,.9-.26,.21,0,.42,.04,.62,.12,.2,.08,.38,.2,.54,.36s.28,.36,.38,.6,.14,.53,.14,.86v.23h-3.08v-.4h2.61c0-.25-.05-.48-.15-.68-.1-.2-.24-.36-.42-.48s-.39-.18-.62-.18c-.25,0-.47,.07-.66,.2s-.34,.31-.45,.53c-.11,.22-.16,.46-.16,.72v.24c0,.31,.05,.59,.16,.82,.11,.23,.26,.42,.46,.54,.2,.13,.44,.19,.71,.19,.19,0,.35-.03,.49-.09,.14-.06,.26-.14,.36-.23,.1-.1,.17-.21,.22-.33l.43,.14c-.06,.17-.16,.32-.29,.46s-.31,.25-.51,.34c-.2,.08-.44,.13-.7,.13Z"/>
    <path class="cls-1" d="M97.53,32.13v5.26h-.46v-5.26h.46Z"/>
    <path class="cls-1" d="M99.01,32.13v5.26h-.46v-5.26h.46Z"/>
    <path class="cls-1" d="M101.14,37.48c-.24,0-.46-.05-.65-.14-.2-.09-.35-.23-.47-.41-.12-.18-.17-.39-.17-.65,0-.2,.04-.36,.11-.49s.18-.24,.31-.33c.13-.09,.29-.15,.48-.2,.18-.05,.39-.09,.61-.12,.22-.03,.41-.05,.56-.07s.27-.05,.35-.1c.08-.04,.12-.12,.12-.22v-.09c0-.27-.08-.48-.24-.63-.16-.16-.39-.23-.69-.23s-.52,.06-.7,.19c-.18,.12-.3,.27-.38,.44l-.43-.16c.09-.21,.21-.39,.37-.52,.16-.13,.33-.22,.53-.28s.39-.09,.59-.09c.15,0,.31,.02,.47,.06,.16,.04,.32,.11,.46,.2,.14,.1,.25,.23,.34,.4,.09,.17,.13,.39,.13,.65v2.68h-.46v-.62h-.03c-.06,.12-.14,.23-.24,.34-.11,.11-.24,.2-.41,.27-.16,.07-.35,.11-.57,.11Zm.06-.42c.24,0,.45-.05,.63-.16,.18-.11,.32-.25,.41-.43,.1-.18,.14-.38,.14-.59v-.57s-.09,.06-.17,.09c-.08,.03-.17,.05-.28,.07-.1,.02-.21,.04-.31,.05-.1,.01-.19,.03-.28,.04-.22,.03-.41,.07-.57,.13-.16,.06-.28,.14-.36,.24s-.13,.23-.13,.39c0,.24,.09,.42,.26,.56s.39,.2,.64,.2Z"/>
    <path class="cls-1" d="M104.34,34.93v2.46h-.46v-5.26h.46v1.93h.04c.09-.2,.24-.37,.43-.49,.19-.12,.44-.18,.74-.18,.27,0,.5,.05,.7,.16s.36,.27,.47,.49c.11,.21,.17,.48,.17,.79v2.55h-.46v-2.53c0-.33-.09-.58-.27-.77s-.42-.28-.73-.28c-.21,0-.4,.04-.56,.13-.16,.09-.29,.22-.39,.38s-.14,.37-.14,.59Z"/>
    <path class="cls-1" d="M114.18,34.76c0,.55-.1,1.02-.29,1.43-.2,.4-.46,.72-.8,.94s-.73,.33-1.18,.33-.84-.11-1.18-.33c-.34-.22-.61-.54-.8-.94-.19-.41-.29-.88-.29-1.43s.1-1.02,.29-1.43c.19-.4,.46-.72,.8-.94s.73-.33,1.18-.33,.84,.11,1.18,.33,.61,.54,.8,.94c.2,.41,.29,.88,.29,1.43Zm-.47,0c0-.47-.08-.87-.24-1.21-.16-.34-.37-.59-.64-.77-.27-.18-.58-.27-.93-.27s-.65,.09-.92,.27c-.27,.18-.49,.43-.65,.77-.16,.34-.24,.74-.24,1.21s.08,.87,.24,1.21,.37,.59,.64,.77,.58,.27,.93,.27,.66-.09,.93-.27c.27-.18,.49-.43,.65-.77,.16-.34,.24-.74,.23-1.21Z"/>
    <path class="cls-1" d="M115.06,38.87v-5.42h.44v.75h.05c.05-.12,.13-.24,.23-.36,.1-.12,.22-.23,.38-.32,.16-.08,.36-.13,.6-.13,.33,0,.61,.08,.85,.26,.24,.17,.43,.41,.57,.71,.14,.3,.2,.66,.2,1.07s-.07,.76-.2,1.07c-.14,.31-.33,.54-.57,.72-.24,.17-.53,.26-.85,.26-.24,0-.44-.04-.6-.13-.16-.09-.29-.19-.39-.32s-.17-.25-.23-.37h-.04v2.21h-.46Zm.45-3.45c0,.32,.05,.6,.14,.85,.09,.25,.23,.44,.41,.58s.4,.21,.65,.21,.48-.07,.66-.22c.18-.14,.32-.34,.41-.59,.09-.25,.14-.52,.14-.83s-.05-.58-.14-.82c-.09-.24-.23-.44-.41-.58-.18-.14-.4-.21-.67-.21s-.48,.07-.66,.21-.32,.33-.41,.57-.14,.52-.14,.84Z"/>
    <path class="cls-1" d="M120.77,33.45v.4h-1.88v-.4h1.88Zm-1.29-.94h.46v3.86c0,.16,.03,.29,.08,.39,.06,.09,.13,.16,.22,.2,.09,.04,.19,.06,.29,.06,.06,0,.11,0,.15-.01s.08-.02,.11-.02l.1,.41s-.1,.03-.17,.05c-.06,.01-.15,.02-.24,.02-.17,0-.33-.04-.48-.11-.15-.07-.28-.18-.38-.33s-.15-.33-.15-.54v-3.97Z"/>
    <path class="cls-1" d="M121.87,32.77c-.09,0-.17-.03-.24-.1-.07-.06-.1-.14-.1-.23s.03-.17,.1-.23c.07-.06,.15-.1,.24-.1s.17,.03,.24,.1c.07,.06,.1,.14,.1,.23s-.03,.17-.1,.23c-.07,.06-.15,.1-.24,.1Zm-.23,4.62v-3.94h.46v3.94h-.46Z"/>
    <path class="cls-1" d="M124.66,37.47c-.34,0-.64-.09-.9-.26-.26-.17-.46-.41-.61-.72-.15-.31-.22-.66-.22-1.06s.07-.76,.22-1.07c.15-.31,.35-.55,.61-.72,.26-.17,.56-.26,.9-.26s.64,.09,.9,.26c.26,.17,.46,.41,.61,.72,.15,.31,.22,.66,.22,1.07s-.07,.75-.22,1.06-.35,.54-.61,.72-.56,.26-.9,.26Zm0-.42c.27,0,.51-.07,.7-.22,.19-.15,.33-.34,.43-.59,.1-.24,.15-.51,.15-.81s-.05-.56-.15-.81c-.1-.25-.24-.44-.43-.59-.19-.15-.42-.22-.7-.22s-.5,.07-.7,.22c-.19,.15-.33,.35-.43,.59-.1,.25-.15,.52-.15,.81s.05,.56,.15,.81c.1,.25,.24,.44,.43,.59,.19,.15,.42,.22,.7,.22Z"/>
    <path class="cls-1" d="M127.67,34.93v2.46h-.46v-3.94h.44v.62h.04c.09-.2,.24-.36,.43-.49,.2-.12,.44-.18,.73-.18,.27,0,.5,.05,.7,.17s.36,.27,.47,.49c.11,.21,.17,.48,.17,.79v2.55h-.46v-2.53c0-.32-.09-.58-.27-.77-.18-.19-.42-.28-.73-.28-.21,0-.39,.04-.55,.13-.16,.09-.29,.22-.38,.38-.09,.17-.14,.37-.14,.59Z"/>
    <path class="cls-1" d="M133.87,34.31l-.42,.12c-.04-.12-.1-.22-.17-.32-.08-.1-.17-.17-.29-.23-.12-.06-.27-.08-.45-.08-.27,0-.49,.06-.66,.19-.17,.13-.26,.29-.26,.49,0,.17,.06,.31,.18,.41,.12,.1,.3,.19,.54,.25l.6,.15c.33,.08,.58,.21,.74,.38,.17,.17,.25,.39,.25,.66,0,.22-.06,.42-.18,.59s-.29,.31-.51,.41-.47,.15-.76,.15c-.39,0-.7-.09-.95-.26s-.41-.42-.48-.75l.44-.11c.06,.23,.17,.41,.33,.53,.17,.12,.38,.18,.65,.18,.3,0,.54-.07,.73-.2,.18-.14,.27-.31,.27-.51,0-.16-.05-.29-.16-.4-.11-.11-.27-.19-.48-.24l-.64-.15c-.34-.08-.6-.21-.76-.39s-.25-.4-.25-.66c0-.22,.06-.41,.18-.57s.28-.29,.49-.39c.21-.09,.44-.14,.71-.14,.36,0,.65,.08,.87,.25,.22,.16,.37,.39,.47,.67Z"/>
  </g>
</svg>