<?xml version="1.0" standalone="no"?>
<!DOCTYPE svg PUBLIC "-//W3C//DTD SVG 1.1//EN" "http://www.w3.org/Graphics/SVG/1.1/DTD/svg11.dtd">
<svg xmlns="http://www.w3.org/2000/svg" id="Layer_1" data-name="Layer 1" viewBox="0 0 176.55 39.86" width="176.5500030517578" height="39.86000061035156">
  <defs>
    <style>
      .cls-1 {
        letter-spacing: -.04em;
      }

      .cls-2, .cls-3 {
        fill: #6d6e71;
      }

      .cls-4 {
        letter-spacing: -.03em;
      }

      .cls-3 {
        font-family: Inter-Light, Inter;
        font-size: 7.23px;
        font-weight: 300;
      }

      .cls-5 {
        fill: #05a3e8;
      }
    </style>
  </defs>
  <path class="cls-2" d="M49.74,26.64L42.4,.16h4.2l5.16,20.51h.25L57.37,.16h4.16l5.37,20.52h.25L72.29,.16h4.22l-7.36,26.48h-4.02l-5.57-19.83h-.21l-5.57,19.83h-4.03Z"/>
  <path class="cls-2" d="M78.79,5.76c-.67,0-1.25-.23-1.73-.68-.48-.45-.72-.99-.72-1.62s.24-1.18,.72-1.64c.48-.45,1.05-.68,1.73-.68s1.25,.23,1.73,.68c.48,.45,.72,1,.72,1.64s-.24,1.17-.72,1.62c-.48,.45-1.05,.68-1.73,.68Zm-1.95,20.87V6.78h3.87V26.64h-3.87Z"/>
  <path class="cls-2" d="M86.74,14.84v11.79h-3.87V6.78h3.71v3.23h.25c.46-1.05,1.17-1.9,2.15-2.53s2.21-.96,3.7-.96c1.35,0,2.54,.28,3.56,.85,1.02,.56,1.81,1.4,2.37,2.51,.56,1.11,.84,2.49,.84,4.13v12.63h-3.87V14.47c0-1.44-.38-2.57-1.13-3.38s-1.78-1.22-3.09-1.22c-.9,0-1.69,.19-2.39,.58-.69,.39-1.24,.96-1.64,1.7-.4,.75-.6,1.64-.6,2.7Z"/>
  <path class="cls-2" d="M115.1,6.78v3.22h-.29c-.23-.42-.56-.89-.99-1.44-.43-.55-1.02-1.02-1.78-1.43-.75-.42-1.75-.62-2.98-.62-1.59,0-3.03,.4-4.28,1.21-1.26,.81-2.26,1.96-2.97,3.47-.72,1.51-1.08,3.33-1.08,5.43s.36,3.9,1.09,5.33c.72,1.45,1.72,2.54,2.97,3.28,1.26,.74,2.67,1.1,4.24,1.1,1.21,0,2.2-.19,2.96-.57s1.35-.83,1.79-1.34c.43-.52,.77-.99,1-1.41h.25v3.91c0,1.56-.48,2.68-1.44,3.4s-2.17,1.07-3.63,1.07c-1.07,0-1.94-.15-2.61-.46-.68-.3-1.21-.67-1.6-1.09-.39-.42-.71-.82-.94-1.2l-3.33,1.37c.36,.81,.89,1.56,1.6,2.23,.71,.69,1.64,1.24,2.77,1.65,1.14,.42,2.49,.62,4.07,.62,1.69,0,3.21-.26,4.56-.78,1.34-.53,2.41-1.34,3.21-2.43s1.19-2.49,1.19-4.2V6.78h-3.79Zm-.02,14.99h-5.7c-3.15,0-5.7-2.55-5.7-5.7,0-1.57,.64-2.99,1.67-4.03,1.03-1.03,2.46-1.67,4.03-1.67s2.99,.64,4.03,1.67,1.67,2.46,1.67,4.03v5.7Z"/>
  <path class="cls-2" d="M121.05,26.64V6.78h3.74v3.15h.21c.36-1.07,1-1.91,1.92-2.53,.92-.62,1.96-.93,3.12-.93,.24,0,.53,0,.86,.03s.59,.04,.78,.06v3.7c-.16-.04-.43-.09-.83-.15s-.79-.08-1.19-.08c-.91,0-1.73,.19-2.44,.58-.71,.38-1.27,.91-1.69,1.59-.41,.68-.62,1.45-.62,2.31v12.13h-3.87Z"/>
  <path class="cls-2" d="M137.62,27.08c-1.26,0-2.4-.23-3.41-.7s-1.82-1.15-2.41-2.05-.89-2-.89-3.3c0-1.12,.22-2.04,.65-2.77,.43-.72,1.01-1.3,1.75-1.72,.73-.42,1.55-.74,2.46-.96s1.83-.38,2.77-.49c1.19-.14,2.15-.25,2.9-.34,.74-.09,1.28-.24,1.62-.45s.5-.54,.5-1.01v-.09c0-1.13-.32-2-.95-2.62-.63-.62-1.58-.93-2.83-.93s-2.33,.29-3.07,.86c-.75,.57-1.26,1.21-1.54,1.91l-3.63-.83c.43-1.21,1.06-2.18,1.89-2.93,.83-.75,1.79-1.29,2.88-1.63s2.23-.51,3.43-.51c.79,0,1.64,.09,2.53,.28,.89,.19,1.73,.52,2.51,1.01,.78,.49,1.42,1.19,1.92,2.1s.75,2.09,.75,3.54v13.19h-3.78v-2.72h-.16c-.25,.5-.63,.99-1.12,1.47-.5,.48-1.14,.88-1.93,1.2-.78,.32-1.72,.48-2.82,.48Zm.84-3.1c1.07,0,1.98-.21,2.75-.63,.76-.42,1.34-.98,1.75-1.66,.4-.69,.6-1.42,.6-2.2v-2.56c-.14,.14-.4,.26-.79,.38-.39,.12-.84,.22-1.34,.3-.5,.08-.99,.16-1.46,.22-.47,.06-.87,.12-1.19,.16-.75,.1-1.43,.25-2.05,.48-.62,.22-1.11,.55-1.47,.96-.37,.42-.55,.97-.55,1.66,0,.96,.35,1.68,1.06,2.17,.71,.49,1.61,.73,2.7,.73Z"/>
  <path class="cls-2" d="M149.55,26.64V6.78h3.71v3.23h.25c.41-1.09,1.09-1.95,2.03-2.57,.94-.62,2.06-.92,3.37-.92s2.44,.31,3.34,.93c.9,.62,1.57,1.47,2,2.56h.21c.48-1.06,1.23-1.91,2.26-2.54,1.03-.63,2.27-.95,3.7-.95,1.8,0,3.27,.56,4.42,1.69,1.14,1.13,1.71,2.83,1.71,5.11v13.32h-3.86V13.68c0-1.34-.37-2.32-1.1-2.92-.73-.6-1.61-.9-2.63-.9-1.26,0-2.24,.39-2.93,1.16-.7,.77-1.05,1.76-1.05,2.97v12.66h-3.85V13.43c0-1.08-.34-1.94-1.01-2.6-.67-.65-1.55-.98-2.63-.98-.73,0-1.41,.19-2.02,.58-.62,.38-1.11,.92-1.49,1.6-.38,.68-.56,1.47-.56,2.37v12.25h-3.87Z"/>
  <g>
    <path class="cls-5" d="M4.46,2.37H24.74c2.18,0,3.96,1.77,3.96,3.96v6.77H4.46c-2.18,0-3.96-1.77-3.96-3.96v-2.81c0-2.18,1.77-3.96,3.96-3.96Z" transform="translate(-1.42 3.69) rotate(-13.74)"/>
    <path class="cls-5" d="M4,16.44H24.28c2.18,0,3.96,1.77,3.96,3.96v2.81c0,2.18-1.77,3.96-3.96,3.96H.05v-6.77c0-2.18,1.77-3.96,3.96-3.96Z" transform="translate(-4.77 3.98) rotate(-13.74)"/>
  </g>
  <text class="cls-3" transform="translate(120.62 37.55)"><tspan class="cls-1" x="0" y="0">b</tspan><tspan class="cls-4" x="4.11" y="0">y Bellah Options</tspan></text>
</svg>